<?xml version="1.0" encoding="utf-8"?>
<!-- Generator: Adobe Illustrator 24.3.1, SVG Export Plug-In . SVG Version: 6.00 Build 0)  -->
<svg version="1.1" id="Layer_1" xmlns="http://www.w3.org/2000/svg" xmlns:xlink="http://www.w3.org/1999/xlink" x="0px" y="0px"
	 viewBox="0 0 170 24" style="enable-background:new 0 0 170 24;" xml:space="preserve">
<style type="text/css">
	.st0{clip-path:url(#SVGID_2_);}
	.st1{fill-rule:evenodd;clip-rule:evenodd;fill:#00AEEF;}
	.st2{fill-rule:evenodd;clip-rule:evenodd;fill:#323539;}
</style>
<g>
	<defs>
		<rect id="SVGID_1_" width="170" height="24"/>
	</defs>
	<clipPath id="SVGID_2_">
		<use xlink:href="#SVGID_1_"  style="overflow:visible;"/>
	</clipPath>
	<g class="st0">
		<path class="st1" d="M27,0.5C19.4,3.4,10.4,5,2.1,4C-1.4,3.6,1.7,8,2.6,9.4C12.8,9.2,20.1,6.3,27,0.5z"/>
		<path class="st1" d="M28.2,0.4c-5.2,5.9-12.1,10.7-23,12.5c1.3,1.6,3.2,3.8,4.1,4.7C18.4,13.6,24,8.1,28.2,0.4z"/>
		<path class="st1" d="M26,6.2c-5.1,8.2-10.7,12.1-14.1,14c1.1,1.1,3.3,3.1,4.4,3.3C18.8,24.1,23.8,13,26,6.2z"/>
		<path class="st2" d="M36.6,14.1c-0.2-1.4-1.1-2.5-2.8-2.5c-1.6,0-2.7,0.9-3,2.5H36.6L36.6,14.1z M34,18.3c1.4,0,2.4-0.5,2.9-1.1
			l1.5,1.5c-1,1-2.3,1.7-4.4,1.7c-3.6,0-5.9-2.3-5.9-5.4c0-3.1,2.4-5.4,5.5-5.4c3.5,0,5.5,2.6,5.4,6.3h-8.4
			C31,17.4,32.1,18.3,34,18.3z"/>
		<path class="st2" d="M38.6,9.8h2.8l1.7,4.3c0.3,0.8,0.6,2,0.6,2s0.4-1.2,0.8-1.9l2.1-4.5h0.2l2.3,4.7c0.4,0.7,0.7,2,0.7,2
			s0.3-1.2,0.6-2l1.7-4.5h2.5l-4.6,10.7h-0.3l-2.6-5.1c-0.3-0.7-0.6-1.8-0.6-1.8s-0.3,1.1-0.6,1.8l-2.7,5.1h-0.3L38.6,9.8z"/>
		<rect x="55.8" y="9.8" class="st2" width="2.5" height="10.4"/>
		<polygon class="st2" points="59.7,20 65.1,11.9 60.3,11.9 60.3,9.8 68.9,9.8 68.9,10.1 63.5,18.2 68.6,18.2 68.6,20.2 59.7,20.2 
					"/>
		<path class="st1" d="M71,14.9c0-3,2.3-5.3,5.4-5.3c1.9,0,3.2,0.7,4.1,1.9L78.8,13c-0.5-0.7-1.3-1.2-2.4-1.2
			c-1.8,0-2.9,1.3-2.9,3.2c0,1.8,1.1,3.2,2.9,3.2c1.2,0,1.9-0.5,2.5-1.1l1.7,1.5c-1,1.1-2.2,1.8-4.2,1.8C73.3,20.2,71,18,71,14.9z"
			/>
		<path class="st1" d="M89.8,14.9c0-1.9-1.1-3.2-3-3.2c-1.8,0-3,1.3-3,3.2c0,1.9,1.2,3.2,3,3.2C88.7,18.1,89.8,16.8,89.8,14.9
			L89.8,14.9z M81.3,14.9c0-3,2.4-5.3,5.5-5.3c3.1,0,5.5,2.3,5.5,5.3c0,3-2.4,5.3-5.5,5.3C83.8,20.2,81.3,18,81.3,14.9z"/>
		<path class="st1" d="M93.9,9.8h2.4l0,1.7c0.7-1.3,1.7-2,3-2c1.5,0,2.4,0.7,3,1.9c0.8-1.2,2-1.9,3.5-1.9c2.4,0,3.8,1.6,3.8,4.2V20
			h-2.4v-6c0-1.4-0.5-2.2-1.9-2.2c-1.4,0-2.3,0.9-2.3,2.6V20h-2.4v-6c0-1.4-0.5-2.2-1.9-2.2c-1.5,0-2.3,0.9-2.3,2.6V20h-2.4V9.8z"/>
		<path class="st1" d="M111.7,9.8h2.4l0,1.7c0.7-1.3,1.7-2,3-2c1.5,0,2.4,0.7,3,1.9c0.8-1.2,2-1.9,3.5-1.9c2.4,0,3.8,1.6,3.8,4.2V20
			H125v-6c0-1.4-0.5-2.2-1.9-2.2c-1.4,0-2.3,0.9-2.3,2.6V20h-2.4v-6c0-1.4-0.5-2.2-1.9-2.2c-1.5,0-2.3,0.9-2.3,2.6V20h-2.4V9.8z"/>
		<path class="st1" d="M137.2,14.1c-0.2-1.4-1.1-2.4-2.8-2.4c-1.6,0-2.7,0.9-3,2.4H137.2L137.2,14.1z M134.7,18.2
			c1.3,0,2.3-0.5,2.9-1.1l1.4,1.5c-0.9,0.9-2.3,1.6-4.3,1.6c-3.5,0-5.7-2.3-5.7-5.3c0-3,2.4-5.3,5.4-5.3c3.5,0,5.4,2.6,5.3,6.1h-8.2
			C131.7,17.2,132.8,18.2,134.7,18.2z"/>
		<path class="st1" d="M141.3,9.8h2.4l0,1.9c0.7-1.6,1.8-2.1,3-2.1c0.7,0,1.2,0.2,1.7,0.4l-0.8,2.2c-0.4-0.2-0.8-0.3-1.3-0.3
			c-1.5,0-2.4,0.8-2.4,3.1V20h-2.4V9.8z"/>
		<path class="st1" d="M148.5,14.9c0-3,2.3-5.3,5.4-5.3c1.9,0,3.2,0.7,4.1,1.9l-1.7,1.4c-0.5-0.7-1.3-1.2-2.4-1.2
			c-1.8,0-2.9,1.3-2.9,3.2c0,1.8,1.1,3.2,2.9,3.2c1.2,0,1.9-0.5,2.5-1.1l1.7,1.5c-1,1.1-2.2,1.8-4.2,1.8
			C150.8,20.2,148.5,18,148.5,14.9z"/>
		<path class="st1" d="M167,14.1c-0.2-1.4-1.1-2.4-2.8-2.4c-1.6,0-2.7,0.9-3,2.4H167L167,14.1z M164.5,18.2c1.3,0,2.3-0.5,2.9-1.1
			l1.4,1.5c-0.9,0.9-2.3,1.6-4.3,1.6c-3.5,0-5.7-2.3-5.7-5.3c0-3,2.4-5.3,5.4-5.3c3.5,0,5.4,2.6,5.3,6.1h-8.2
			C161.6,17.2,162.7,18.2,164.5,18.2z"/>
	</g>
</g>
</svg>
